<?xml version="1.0" encoding="UTF-8" standalone="no"?>
<!-- Created with Inkscape (http://www.inkscape.org/) -->

<svg
   xmlns:dc="http://purl.org/dc/elements/1.1/"
   xmlns:cc="http://creativecommons.org/ns#"
   xmlns:rdf="http://www.w3.org/1999/02/22-rdf-syntax-ns#"
   xmlns:svg="http://www.w3.org/2000/svg"
   xmlns="http://www.w3.org/2000/svg"
   xmlns:sodipodi="http://sodipodi.sourceforge.net/DTD/sodipodi-0.dtd"
   xmlns:inkscape="http://www.inkscape.org/namespaces/inkscape"
   width="210mm"
   height="297mm"
   viewBox="0 0 210 297"
   version="1.1"
   id="svg8"
   inkscape:version="0.92.3 (2405546, 2018-03-11)"
   sodipodi:docname="redhand.svg"
   inkscape:export-filename="/home/noa/opengl/redhand/doc/redhand.svg.png"
   inkscape:export-xdpi="6.4028502"
   inkscape:export-ydpi="6.4028502">
  <defs
     id="defs2">
    <inkscape:path-effect
       effect="simplify"
       id="path-effect347"
       is_visible="true"
       steps="1"
       threshold="0.0327885"
       smooth_angles="360"
       helper_size="0"
       simplify_individual_paths="false"
       simplify_just_coalesce="false"
       simplifyindividualpaths="false"
       simplifyJustCoalesce="false" />
    <inkscape:path-effect
       effect="simplify"
       id="path-effect324"
       is_visible="true"
       steps="1"
       threshold="0.0327885"
       smooth_angles="360"
       helper_size="0"
       simplify_individual_paths="false"
       simplify_just_coalesce="false"
       simplifyindividualpaths="false"
       simplifyJustCoalesce="false" />
    <inkscape:path-effect
       effect="simplify"
       id="path-effect320"
       is_visible="true"
       steps="1"
       threshold="0.0327885"
       smooth_angles="360"
       helper_size="0"
       simplify_individual_paths="false"
       simplify_just_coalesce="false"
       simplifyindividualpaths="false"
       simplifyJustCoalesce="false" />
    <inkscape:path-effect
       effect="simplify"
       id="path-effect316"
       is_visible="true"
       steps="1"
       threshold="0.0327885"
       smooth_angles="360"
       helper_size="0"
       simplify_individual_paths="false"
       simplify_just_coalesce="false"
       simplifyindividualpaths="false"
       simplifyJustCoalesce="false" />
    <inkscape:path-effect
       effect="simplify"
       id="path-effect312"
       is_visible="true"
       steps="1"
       threshold="0.0327885"
       smooth_angles="360"
       helper_size="0"
       simplify_individual_paths="false"
       simplify_just_coalesce="false"
       simplifyindividualpaths="false"
       simplifyJustCoalesce="false" />
    <inkscape:path-effect
       effect="simplify"
       id="path-effect308"
       is_visible="true"
       steps="1"
       threshold="0.0327885"
       smooth_angles="360"
       helper_size="0"
       simplify_individual_paths="false"
       simplify_just_coalesce="false"
       simplifyindividualpaths="false"
       simplifyJustCoalesce="false" />
    <inkscape:path-effect
       effect="simplify"
       id="path-effect304"
       is_visible="true"
       steps="1"
       threshold="0.0327885"
       smooth_angles="360"
       helper_size="0"
       simplify_individual_paths="false"
       simplify_just_coalesce="false"
       simplifyindividualpaths="false"
       simplifyJustCoalesce="false" />
    <inkscape:path-effect
       effect="simplify"
       id="path-effect300"
       is_visible="true"
       steps="1"
       threshold="0.0327885"
       smooth_angles="360"
       helper_size="0"
       simplify_individual_paths="false"
       simplify_just_coalesce="false"
       simplifyindividualpaths="false"
       simplifyJustCoalesce="false" />
    <inkscape:path-effect
       effect="simplify"
       id="path-effect228"
       is_visible="true"
       steps="1"
       threshold="0.5"
       smooth_angles="360"
       helper_size="0"
       simplify_individual_paths="false"
       simplify_just_coalesce="false"
       simplifyindividualpaths="false"
       simplifyJustCoalesce="false" />
    <inkscape:path-effect
       effect="simplify"
       id="path-effect224"
       is_visible="true"
       steps="1"
       threshold="0.5"
       smooth_angles="360"
       helper_size="0"
       simplify_individual_paths="false"
       simplify_just_coalesce="false"
       simplifyindividualpaths="false"
       simplifyJustCoalesce="false" />
    <inkscape:path-effect
       effect="simplify"
       id="path-effect216"
       is_visible="true"
       steps="1"
       threshold="0.5"
       smooth_angles="360"
       helper_size="0"
       simplify_individual_paths="false"
       simplify_just_coalesce="false"
       simplifyindividualpaths="false"
       simplifyJustCoalesce="false" />
    <inkscape:path-effect
       effect="simplify"
       id="path-effect200"
       is_visible="true"
       steps="1"
       threshold="0.5"
       smooth_angles="360"
       helper_size="0"
       simplify_individual_paths="false"
       simplify_just_coalesce="false"
       simplifyindividualpaths="false"
       simplifyJustCoalesce="false" />
    <inkscape:path-effect
       effect="simplify"
       id="path-effect196"
       is_visible="true"
       steps="1"
       threshold="0.5"
       smooth_angles="360"
       helper_size="0"
       simplify_individual_paths="false"
       simplify_just_coalesce="false"
       simplifyindividualpaths="false"
       simplifyJustCoalesce="false" />
    <inkscape:path-effect
       effect="simplify"
       id="path-effect192"
       is_visible="true"
       steps="1"
       threshold="0.5"
       smooth_angles="360"
       helper_size="0"
       simplify_individual_paths="false"
       simplify_just_coalesce="false"
       simplifyindividualpaths="false"
       simplifyJustCoalesce="false" />
    <inkscape:path-effect
       effect="simplify"
       id="path-effect188"
       is_visible="true"
       steps="1"
       threshold="0.5"
       smooth_angles="360"
       helper_size="0"
       simplify_individual_paths="false"
       simplify_just_coalesce="false"
       simplifyindividualpaths="false"
       simplifyJustCoalesce="false" />
    <inkscape:path-effect
       effect="simplify"
       id="path-effect180"
       is_visible="true"
       steps="1"
       threshold="0.5"
       smooth_angles="360"
       helper_size="0"
       simplify_individual_paths="false"
       simplify_just_coalesce="false"
       simplifyindividualpaths="false"
       simplifyJustCoalesce="false" />
  </defs>
  <sodipodi:namedview
     id="base"
     pagecolor="#ffffff"
     bordercolor="#666666"
     borderopacity="1.0"
     inkscape:pageopacity="0.0"
     inkscape:pageshadow="2"
     inkscape:zoom="0.49497475"
     inkscape:cx="146.68852"
     inkscape:cy="605.61309"
     inkscape:document-units="mm"
     inkscape:current-layer="layer1"
     showgrid="false"
     inkscape:window-width="1920"
     inkscape:window-height="1019"
     inkscape:window-x="0"
     inkscape:window-y="37"
     inkscape:window-maximized="1" />
  <metadata
     id="metadata5">
    <rdf:RDF>
      <cc:Work
         rdf:about="">
        <dc:format>image/svg+xml</dc:format>
        <dc:type
           rdf:resource="http://purl.org/dc/dcmitype/StillImage" />
        <dc:title />
      </cc:Work>
    </rdf:RDF>
  </metadata>
  <g
     inkscape:label="Layer 1"
     inkscape:groupmode="layer"
     id="layer1">
    <path
       style="fill:#800000;stroke:#000000;stroke-width:0.25713879px;stroke-linecap:butt;stroke-linejoin:miter;stroke-opacity:1"
       d="m 28.859805,99.529542 c 0.02703,12.956348 -0.605839,13.574298 1.808878,24.779278 2.684312,13.1357 8.379714,24.34902 9.897334,31.87134 2.847172,20.69469 2.210087,40.28569 -2.365244,59.14297 -2.036209,12.11786 -1.531699,19.52345 6.670664,29.21607 8.370239,7.79079 27.399643,0.84545 38.148959,1.87797 28.728954,2.75954 37.236184,-2.28594 46.036314,-6.83306 10.6069,-7.86964 16.06198,-18.21082 17.07313,-29.27016 0.0192,-9.48353 -5.2073,-16.59056 -7.17376,-24.32575 -4.16412,-14.45191 -4.15366,-16.61258 -0.0611,-30.69041 3.26808,-12.89296 -9.41208,-22.33513 -51.943255,-10.22378 -8.70445,2.19709 -20.306086,0.88838 -25.7686,-1.43502 -11.181364,-6.18728 -13.372302,-9.01627 -13.966916,-19.66073 -0.886811,-14.027 -2.907214,-43.879095 -12.236782,-41.034622 -5.015996,2.349559 -5.945231,8.61299 -6.119612,16.585904 z m 63.746277,70.156718 c 2.514458,0.0538 4.312423,2.01857 4.120943,6.62706 -0.363928,8.75887 5.249425,8.08847 9.826485,15.92613 5.01499,8.58759 -5.78952,13.16049 -12.185261,15.89855 -6.509607,2.37395 -20.148944,3.12647 -20.784808,0.64581 -1.373274,-5.41064 6.349823,-12.42545 2.42568,-19.87319 -4.243019,-7.50897 5.474558,-12.78201 10.837098,-16.88531 1.983951,-1.51808 4.039444,-2.37586 5.759863,-2.33905 z"
       id="path214"
       inkscape:connector-curvature="0"
       sodipodi:nodetypes="cccccscccccccccssscccss"
       inkscape:export-filename="/home/noa/opengl/redhand/doc/path214.png"
       inkscape:export-xdpi="6"
       inkscape:export-ydpi="6" />
    <path
       style="fill:#800000;stroke:#000000;stroke-width:0.26458332px;stroke-linecap:butt;stroke-linejoin:miter;stroke-opacity:1"
       d="m 165.20936,152.37726 c -4.41023,5.36243 -6.32136,14.01615 -7.99123,15.60803 -1.41933,1.35305 -4.14871,7.40304 -2.68442,6.90442 11.11275,-3.65114 23.83879,-7.14078 29.69463,-16.43117 3.39113,-5.66831 10.20044,-9.02742 9.09407,-9.9685 -14.41487,-9.39947 -22.83892,-2.29634 -28.11305,3.88722 z"
       id="path298"
       inkscape:connector-curvature="0"
       sodipodi:nodetypes="cscccc"
       inkscape:export-filename="/home/noa/opengl/redhand/doc/path214.png"
       inkscape:export-xdpi="6"
       inkscape:export-ydpi="6" />
    <path
       style="fill:#800000;stroke:#000000;stroke-width:0.23173091px;stroke-linecap:butt;stroke-linejoin:miter;stroke-opacity:1"
       d="m 72.011347,115.43166 c -4.849396,-0.48099 -4.328944,9.60821 -3.989908,12.51928 0.25978,2.31187 2.911731,6.48032 4.897484,3.07905 1.290567,-2.21052 2.86244,-4.03047 3.317743,-6.71779 0.566668,-3.34462 -1.100696,-8.29186 -4.225319,-8.88054 z"
       id="path306"
       inkscape:connector-curvature="0"
       sodipodi:nodetypes="ccssc"
       inkscape:export-filename="/home/noa/opengl/redhand/doc/path214.png"
       inkscape:export-xdpi="6"
       inkscape:export-ydpi="6" />
    <path
       style="fill:#800000;stroke:#000000;stroke-width:0.26458332px;stroke-linecap:butt;stroke-linejoin:miter;stroke-opacity:1"
       d="m 62.57145,63.080758 c -2.388592,2.420601 -3.504453,3.910576 -3.360501,9.211656 0.171603,6.319486 2.344065,3.889756 2.65535,16.398335 0.56697,6.2025 1.573154,16.252021 8.726659,15.952961 3.873873,-0.16195 5.896697,-4.6316 4.163822,-9.802025 C 72.874153,89.224448 73.474191,79.836426 73.735973,75.454751 74.087083,65.83157 66.17597,59.904231 62.57145,63.080758 Z"
       id="path310"
       inkscape:connector-curvature="0"
       sodipodi:nodetypes="cscsscc"
       inkscape:export-filename="/home/noa/opengl/redhand/doc/path214.png"
       inkscape:export-xdpi="6"
       inkscape:export-ydpi="6" />
    <path
       style="fill:#800000;stroke:#000000;stroke-width:0.26458332px;stroke-linecap:butt;stroke-linejoin:miter;stroke-opacity:1"
       d="m 105.83992,108.84415 c -5.36237,-1.98302 -9.229249,6.47199 -11.985006,11.27876 -2.474201,4.37362 2.353643,10.06932 4.831747,10.32082 4.814309,0.48859 6.779219,-7.47193 7.372679,-12.85865 0.0587,-3.37749 1.71182,-8.62934 -0.21942,-8.74093 z"
       id="path314"
       inkscape:connector-curvature="0"
       sodipodi:nodetypes="ccscc"
       inkscape:export-filename="/home/noa/opengl/redhand/doc/path214.png"
       inkscape:export-xdpi="6"
       inkscape:export-ydpi="6" />
    <path
       style="fill:#800000;stroke:#000000;stroke-width:0.26458332px;stroke-linecap:butt;stroke-linejoin:miter;stroke-opacity:1"
       d="m 111.509,50.272279 c -9.52788,-1.367333 -9.36789,16.305342 -9.08976,26.833772 -0.11344,4.507128 -5.918985,18.03242 1.74215,17.71628 8.02341,-0.0056 7.2889,-14.743308 8.04616,-20.942096 0.46865,-7.157813 4.93111,-22.482226 -0.69855,-23.607956 z"
       id="path318"
       inkscape:connector-curvature="0"
       sodipodi:nodetypes="ccccc"
       inkscape:export-filename="/home/noa/opengl/redhand/doc/path214.png"
       inkscape:export-xdpi="6"
       inkscape:export-ydpi="6" />
    <path
       style="fill:#800000;stroke:#000000;stroke-width:0.27551389px;stroke-linecap:butt;stroke-linejoin:miter;stroke-opacity:1"
       d="m 153.9733,53.115011 c -8.86598,0.217992 -12.81573,9.174763 -13.07077,16.300928 -0.44376,12.399969 -1.29077,12.3402 -8.0998,24.865773 -3.82513,6.567418 -5.11091,13.652668 -5.05535,17.002378 -0.83298,7.11246 -3.58478,7.48564 -3.96169,13.79243 0.054,3.98924 3.11544,7.54069 7.65123,5.41762 5.48623,-2.56794 6.88917,-8.10494 8.7393,-15.14851 0.80891,-3.07953 2.94954,-5.264 3.86254,-8.08399 1.08977,-3.36594 1.81829,-7.09051 3.38296,-10.620043 3.17441,-7.160819 3.08312,-14.431061 5.4391,-20.701692 1.62123,-4.314982 6.18883,-7.526062 6.56119,-12.447784 0.44201,-5.842216 -1.11883,-10.483571 -5.44871,-10.37711 z"
       id="path322"
       inkscape:connector-curvature="0"
       sodipodi:nodetypes="sscccsssssss"
       inkscape:export-filename="/home/noa/opengl/redhand/doc/path214.png"
       inkscape:export-xdpi="6"
       inkscape:export-ydpi="6" />
  </g>
</svg>
